<!-- Generated by IcoMoon.io -->
<svg version="1.1" xmlns="http://www.w3.org/2000/svg" width="512" height="512" viewBox="0 0 512 512">
<g id="icomoon-ignore">
</g>
<path d="M341 235h-21v-171q0-18-12.5-30.5t-30.5-12.5h-42q-18 0-30.5 12.5t-12.5 30.5v171h-21q-30 0-54 14t-38.5 38.5-14.5 53.5v150h384v-150q0-29-14.5-53.5t-38.5-38.5-54-14zM405 448h-42v-64q0-9-6.5-15t-15.5-6q-8 0-14.5 6t-6.5 15v64h-43v-64q0-9-6-15t-15-6-15 6-6 15v64h-43v-64q0-9-6.5-15t-14.5-6q-9 0-15.5 6t-6.5 15v64h-42v-107q0-17 8.5-31.5t23-23.5 32.5-9h170q18 0 32.5 9t23 23.5 8.5 31.5v107z"></path>
</svg>
